<svg width="32" height="32" viewBox="0 0 32 32" fill="none" xmlns="http://www.w3.org/2000/svg">
<path d="M26.5402 19.2479C26.567 18.9077 26.5847 18.5694 26.5847 18.2417V5.43743C26.5847 5.35116 26.5592 5.26682 26.5114 5.19502C26.4636 5.12322 26.3956 5.06717 26.316 5.03393L14.363 0.0339278C14.3095 0.011533 14.2521 0 14.1941 0C14.1361 0 14.0787 0.011533 14.0252 0.0339278L2.07248 5.03393C1.99287 5.06717 1.92488 5.12322 1.87706 5.19502C1.82924 5.26682 1.80372 5.35116 1.80373 5.43743V18.2417C1.7996 20.7937 2.55221 23.2898 3.96642 25.4142C5.38063 27.5386 7.39295 29.196 9.74898 30.1769L14.0257 31.9659C14.0792 31.9884 14.1366 31.9999 14.1946 31.9999C14.2526 31.9999 14.31 31.9884 14.3635 31.9659L18.6405 30.1769C18.7065 30.1494 18.7707 30.1192 18.836 30.0904C19.5335 30.7559 20.3661 31.2635 21.2771 31.5788C22.1882 31.8941 23.1564 32.0097 24.116 31.9177C25.0757 31.8257 26.0043 31.5283 26.8389 31.0457C27.6735 30.5632 28.3945 29.9066 28.9529 29.1208C29.5113 28.3349 29.8941 27.4381 30.0754 26.4913C30.2566 25.5444 30.2319 24.5696 30.0031 23.6331C29.7743 22.6966 29.3467 21.8203 28.7493 21.0636C28.1518 20.307 27.3986 19.6877 26.5407 19.2479H26.5402ZM14.1942 31.0882L10.0862 29.3699C7.88963 28.4552 6.01351 26.9098 4.69503 24.929C3.37655 22.9483 2.67488 20.6211 2.67873 18.2417V5.72868L14.1942 0.911678L25.7097 5.72868V18.2417C25.7097 18.4512 25.7027 18.6667 25.6907 18.8817C25.1701 18.6989 24.6288 18.5813 24.0792 18.5317C24.0822 18.4332 24.0847 18.3359 24.0847 18.2412V7.10168C24.0847 7.01538 24.0592 6.93102 24.0114 6.85918C23.9636 6.78734 23.8956 6.73124 23.816 6.69793L14.363 2.74393C14.3095 2.72153 14.2521 2.71 14.1941 2.71C14.1361 2.71 14.0787 2.72153 14.0252 2.74393L4.57223 6.69793C4.49269 6.73131 4.42478 6.78743 4.37701 6.85926C4.32925 6.93109 4.30375 7.01542 4.30373 7.10168V18.2417C4.30039 20.3005 4.90752 22.3142 6.04837 24.0281C7.18921 25.742 8.81257 27.0792 10.7132 27.8707L14.0252 29.2559C14.0787 29.2784 14.1361 29.2899 14.1941 29.2899C14.2521 29.2899 14.3095 29.2784 14.363 29.2559L17.351 28.0059C17.5793 28.5066 17.8682 28.9774 18.2112 29.4077L14.1942 31.0882ZM16.7472 25.2269C16.7469 25.8915 16.8455 26.5524 17.0397 27.1879L14.1942 28.3782L11.051 27.0634C9.3096 26.3384 7.82227 25.1133 6.77704 23.5431C5.73181 21.9728 5.1756 20.128 5.17873 18.2417V7.39293L14.1942 3.62168L23.2097 7.39293V18.2429C23.2097 18.3302 23.2075 18.4202 23.2047 18.5114C21.47 18.5818 19.8296 19.3199 18.6263 20.5713C17.4229 21.8227 16.7497 23.4908 16.7472 25.2269ZM20.0645 29.9769V29.4399C20.0651 28.8268 20.309 28.239 20.7425 27.8055C21.1761 27.3719 21.7639 27.1281 22.377 27.1274H24.5645C25.1776 27.1281 25.7654 27.3719 26.1989 27.8055C26.6325 28.239 26.8763 28.8268 26.877 29.4399V29.9767C25.8849 30.691 24.6933 31.0754 23.4707 31.0754C22.2482 31.0754 21.0566 30.6913 20.0645 29.9769ZM27.7407 29.2177C27.684 28.4138 27.3251 27.6611 26.7361 27.1111C26.147 26.561 25.3716 26.2543 24.5657 26.2527H22.3782C21.5723 26.2543 20.7969 26.5609 20.2079 27.111C19.6188 27.6611 19.2599 28.4137 19.2032 29.2177C18.4241 28.3852 17.9052 27.3431 17.7106 26.2195C17.5159 25.096 17.654 23.9401 18.1077 22.894C18.5614 21.8479 19.311 20.9573 20.2643 20.3316C21.2176 19.706 22.333 19.3727 23.4732 19.3727C24.6135 19.3727 25.7289 19.706 26.6822 20.3316C27.6355 20.9573 28.3851 21.8479 28.8388 22.894C29.2925 23.9401 29.4305 25.096 29.2359 26.2195C29.0412 27.3431 28.5224 28.3852 27.7432 29.2177H27.7407Z" fill="white"/>
<path d="M23.4707 20.626C22.9797 20.5986 22.4918 20.7192 22.07 20.9722C21.6483 21.2252 21.3122 21.5989 21.1052 22.045C20.8982 22.4911 20.8298 22.989 20.9089 23.4744C20.988 23.9597 21.211 24.4102 21.5489 24.7675C21.8868 25.1248 22.3242 25.3724 22.8044 25.4784C23.2846 25.5844 23.7856 25.5439 24.2425 25.3621C24.6994 25.1802 25.0912 24.8654 25.3673 24.4585C25.6434 24.0515 25.7909 23.571 25.791 23.0793C25.8074 22.4466 25.5724 21.8332 25.1375 21.3734C24.7027 20.9136 24.1033 20.6448 23.4707 20.626ZM23.4707 24.6573C23.1527 24.6853 22.8336 24.6165 22.5553 24.4601C22.277 24.3036 22.0525 24.0667 21.9111 23.7804C21.7698 23.4941 21.7183 23.1718 21.7633 22.8557C21.8083 22.5396 21.9478 22.2445 22.1634 22.0091C22.379 21.7737 22.6608 21.6089 22.9717 21.5363C23.2826 21.4638 23.6082 21.4868 23.9058 21.6025C24.2034 21.7182 24.459 21.9211 24.6393 22.1846C24.8195 22.4482 24.916 22.76 24.916 23.0793C24.9326 23.48 24.7899 23.871 24.5191 24.1669C24.2483 24.4628 23.8714 24.6394 23.4707 24.6583V24.6573Z" fill="white"/>
<path d="M14.1938 7.0722C13.098 7.0722 12.0268 7.39715 11.1157 8.00595C10.2046 8.61475 9.49442 9.48005 9.07507 10.4924C8.65572 11.5048 8.546 12.6189 8.75978 13.6936C8.97356 14.7684 9.50124 15.7556 10.2761 16.5304C11.051 17.3053 12.0382 17.833 13.1129 18.0467C14.1877 18.2605 15.3017 18.1508 16.3141 17.7315C17.3265 17.3121 18.1918 16.602 18.8006 15.6908C19.4094 14.7797 19.7343 13.7085 19.7343 12.6127C19.7327 11.1438 19.1484 9.73549 18.1097 8.69681C17.071 7.65812 15.6627 7.07386 14.1938 7.0722ZM18.4086 14.5997H17.0033C17.1054 14.0887 17.1666 13.5704 17.1863 13.0497H18.8363C18.7854 13.5874 18.6406 14.112 18.4086 14.5997ZM9.97907 10.6247H11.3841C11.2822 11.1357 11.221 11.654 11.2011 12.1747H9.55107C9.60207 11.637 9.74693 11.1124 9.97907 10.6247ZM14.6313 9.7497V8.0672C15.0873 8.3052 15.5288 8.89845 15.8468 9.7502L14.6313 9.7497ZM16.1063 10.6247C16.2203 11.1343 16.2885 11.653 16.3101 12.1747H14.6313V10.6247H16.1063ZM13.7563 8.0667V9.7497H12.5408C12.8588 8.8997 13.3003 8.3052 13.7563 8.0672V8.0667ZM13.7563 10.6247V12.1747H12.0776C12.0991 11.653 12.1673 11.1342 12.2813 10.6247H13.7563ZM9.55057 13.0497H11.2006C11.2205 13.5704 11.2817 14.0887 11.3836 14.5997H9.97857C9.74644 14.112 9.60158 13.5874 9.55057 13.0497ZM12.0776 13.0497H13.7563V14.5997H12.2813C12.1673 14.0902 12.0991 13.5714 12.0776 13.0497ZM13.7563 15.4747V17.1577C13.3003 16.92 12.8588 16.3265 12.5406 15.4747H13.7563ZM14.6313 17.1577V15.4747H15.8468C15.5288 16.3267 15.0873 16.92 14.6313 17.1577ZM14.6313 14.5997V13.0497H16.3101C16.2885 13.5714 16.2203 14.0901 16.1063 14.5997H14.6313ZM17.1863 12.1747C17.1665 11.654 17.1053 11.1357 17.0033 10.6247H18.4086C18.6409 11.1124 18.7859 11.637 18.8371 12.1747H17.1863ZM17.8698 9.7497H16.7771C16.6275 9.26978 16.4175 8.81085 16.1521 8.38395C16.8247 8.69674 17.4135 9.16484 17.8698 9.7497ZM12.2343 8.38445C11.9694 8.81126 11.7598 9.27002 11.6106 9.7497H10.5178C10.9739 9.16522 11.5622 8.69732 12.2343 8.38445ZM10.5176 15.4747H11.6106C11.7597 15.9546 11.9693 16.4135 12.2343 16.8405C11.5621 16.5275 10.9737 16.0594 10.5176 15.4747ZM16.1531 16.8407C16.4185 16.4137 16.6285 15.9547 16.7781 15.4747H17.8711C17.4146 16.0597 16.8258 16.5277 16.1531 16.8407Z" fill="white"/>
</svg>
