<svg width="21" height="20" viewBox="0 0 21 20" fill="none" xmlns="http://www.w3.org/2000/svg">
<path d="M3.83073 17.5V12.5M3.83073 12.5C4.7512 12.5 5.4974 11.7538 5.4974 10.8333V9.16667C5.4974 8.24619 4.7512 7.5 3.83073 7.5M3.83073 12.5C2.91025 12.5 2.16406 11.7538 2.16406 10.8333V9.16667C2.16406 8.24619 2.91025 7.5 3.83073 7.5M10.4974 17.5V11.6667M10.4974 4.16667V2.5M10.4974 4.16667C11.4179 4.16667 12.1641 4.91286 12.1641 5.83333V7.5C12.1641 8.42047 11.4179 9.16667 10.4974 9.16667C9.57692 9.16667 8.83073 8.42047 8.83073 7.5V5.83333C8.83073 4.91286 9.57692 4.16667 10.4974 4.16667ZM3.83073 7.5L3.83073 2.5M17.1641 8.33333V2.5M17.1641 17.5V15.8333M17.1641 15.8333C18.0845 15.8333 18.8307 15.0871 18.8307 14.1667V12.5C18.8307 11.5795 18.0845 10.8333 17.1641 10.8333C16.2436 10.8333 15.4974 11.5795 15.4974 12.5V14.1667C15.4974 15.0871 16.2436 15.8333 17.1641 15.8333Z" stroke="#223160" stroke-width="1.25" stroke-linecap="round"/>
</svg>
