<svg width="22" height="20" viewBox="0 0 22 20" fill="none" xmlns="http://www.w3.org/2000/svg">
<path d="M3 19V13M3 13C4.10457 13 5 12.1046 5 11V9C5 7.89543 4.10457 7 3 7M3 13C1.89543 13 1 12.1046 1 11V9C1 7.89543 1.89543 7 3 7M11 19V12M11 3V1M11 3C12.1046 3 13 3.89543 13 5V7C13 8.10457 12.1046 9 11 9C9.89543 9 9 8.10457 9 7V5C9 3.89543 9.89543 3 11 3ZM3 7L3 1M19 8V1M19 19V17M19 17C20.1046 17 21 16.1046 21 15V13C21 11.8954 20.1046 11 19 11C17.8954 11 17 11.8954 17 13V15C17 16.1046 17.8954 17 19 17Z" stroke="#333132" stroke-width="1.5" stroke-linecap="round"/>
</svg>
