<svg width="28" height="28" viewBox="0 0 28 28" fill="none" xmlns="http://www.w3.org/2000/svg">
<g clip-path="url(#clip0_283_659)">
<path d="M25.1141 23.1788C25.1141 23.1788 22.2006 18.1715 21.678 17.2734C22.2726 17.092 22.906 16.9318 23.1692 16.4774C23.6078 15.7202 22.8271 14.4781 23.0321 13.6664C23.2433 12.8311 24.4899 12.1084 24.4899 11.2593C24.4899 10.4321 23.201 9.4657 22.9897 8.63529C22.7833 7.82383 23.5617 6.58035 23.1217 5.82408C22.6816 5.06774 21.216 5.12988 20.6127 4.54932C19.9919 3.95188 19.9938 2.49012 19.245 2.08975C18.4932 1.68788 17.2714 2.50005 16.4367 2.30767C15.6114 2.11748 14.8742 0.875 14.0122 0.875C13.1375 0.875 11.7461 2.2844 11.5279 2.33512C10.6936 2.52907 9.47024 1.71888 8.71921 2.12245C7.97117 2.52417 7.97578 3.98607 7.35613 4.5845C6.7538 5.16613 5.28807 5.10668 4.84939 5.86388C4.41078 6.62093 5.19152 7.86277 4.98658 8.67481C4.78107 9.48889 3.49099 10.3138 3.49099 11.2553C3.49099 12.1044 4.74078 12.8249 4.95324 13.6598C5.15974 14.4712 4.38134 15.7146 4.82137 16.4711C5.06093 16.8829 5.60446 17.052 6.14727 17.2145C6.21062 17.2334 6.33044 17.3043 6.24928 17.4226C5.87792 18.0636 2.88894 23.2221 2.88894 23.2221C2.65115 23.6324 2.84425 23.9841 3.3179 24.0041L5.63638 24.1008C6.11003 24.1207 6.70421 24.4649 6.95704 24.8659L8.1942 26.829C8.44702 27.2301 8.84818 27.2225 9.08589 26.8123C9.08589 26.8123 12.5475 20.836 12.5489 20.8343C12.6183 20.7532 12.6881 20.7699 12.7216 20.7982C13.1003 21.1207 13.6283 21.4424 14.069 21.4424C14.5011 21.4424 14.9013 21.1396 15.2971 20.8018C15.3293 20.7744 15.4077 20.7181 15.465 20.8349C15.4659 20.8367 18.9237 26.7803 18.9237 26.7803C19.162 27.1901 19.5633 27.197 19.8153 26.7955L21.049 24.83C21.3011 24.4287 21.8946 24.0832 22.3683 24.0625L24.6866 23.9615C25.16 23.9407 25.3525 23.5885 25.1141 23.1788ZM17.8438 17.8031C15.2804 19.2944 12.2034 19.1346 9.85323 17.6522C6.40953 15.4464 5.27644 10.8833 7.34663 7.31024C9.44044 3.69593 14.0431 2.4206 17.69 4.4068C17.7091 4.41723 17.7281 4.42801 17.7471 4.43866C17.7741 4.45362 17.8011 4.4688 17.828 4.48413C18.9531 5.13279 19.9287 6.07421 20.6273 7.27498C22.7624 10.945 21.5138 15.668 17.8438 17.8031Z" fill="white"/>
<path d="M17.2581 5.56269C17.2474 5.55652 17.2367 5.55077 17.226 5.54467C15.2779 4.41718 12.7949 4.33475 10.7139 5.54545C7.62586 7.34203 6.57505 11.3159 8.37164 14.4039C8.91985 15.3463 9.67108 16.0985 10.5378 16.6384C10.6115 16.685 10.6861 16.7309 10.7623 16.775C13.8537 18.566 17.8254 17.5081 19.6163 14.4168C21.4072 11.3254 20.3495 7.35367 17.2581 5.56269ZM18.0314 10.6164L16.949 11.6715C16.6137 11.9982 16.4042 12.6432 16.4834 13.1046L16.7389 14.5944C16.8181 15.0559 16.5439 15.2551 16.1294 15.0373L14.7915 14.3339C14.3771 14.116 13.699 14.116 13.2845 14.3339L11.9466 15.0373C11.5322 15.2551 11.2579 15.0559 11.3371 14.5944L11.5926 13.1046C11.6718 12.6432 11.4622 11.9982 11.127 11.6715L10.0446 10.6164C9.70925 10.2897 9.8141 9.96717 10.2774 9.89978L11.7732 9.68243C12.2365 9.61511 12.7851 9.21651 12.9923 8.79669L13.6613 7.44127C13.8685 7.02146 14.2076 7.02146 14.4147 7.44127L15.0837 8.79669C15.291 9.21651 15.8395 9.61511 16.3029 9.68243L17.7987 9.89978C18.2619 9.96717 18.3667 10.2897 18.0314 10.6164Z" fill="white"/>
</g>
<defs>
<clipPath id="clip0_283_659">
<rect width="26.25" height="26.25" fill="white" transform="translate(0.875 0.875)"/>
</clipPath>
</defs>
</svg>
