<svg width="32" height="32" viewBox="0 0 32 32" fill="none" xmlns="http://www.w3.org/2000/svg">
<g clip-path="url(#clip0_283_540)">
<path d="M28.2456 19.1664C29.2982 16.0643 29.2704 12.6974 28.1665 9.61316C27.0627 6.52893 24.9479 3.9089 22.166 2.17919C19.3841 0.449474 16.0988 -0.28815 12.8445 0.0862861C9.59013 0.460722 6.55821 1.92519 4.24184 4.2415C1.92547 6.5578 0.460918 9.58968 0.0863928 12.844C-0.288133 16.0983 0.449401 19.3836 2.17904 22.1656C3.90867 24.9475 6.52865 27.0624 9.61284 28.1663C12.697 29.2702 16.064 29.2982 19.1661 28.2457C19.6446 29.2072 20.345 30.041 21.2094 30.6784C22.0738 31.3159 23.0774 31.7385 24.1374 31.9115C25.1974 32.0846 26.2833 32.003 27.3055 31.6735C28.3277 31.344 29.2569 30.7762 30.0164 30.0167C30.7758 29.2573 31.3437 28.3281 31.6732 27.3059C32.0027 26.2837 32.0843 25.1978 31.9114 24.1378C31.7384 23.0778 31.3157 22.0742 30.6783 21.2098C30.0409 20.3454 29.2071 19.645 28.2456 19.1664ZM27.4373 18.8264C25.7735 18.2495 23.95 18.3457 22.3561 19.0944L22.9973 17.9752C23.0352 17.9089 23.0552 17.834 23.0551 17.7577V15.6889L24.4146 14.2904C24.4941 14.2088 24.5385 14.0993 24.5383 13.9854V12.2057C24.5383 12.1101 24.5071 12.0172 24.4493 11.9411C24.3915 11.8651 24.3104 11.81 24.2183 11.7844L21.8183 11.1154L20.9308 9.37891C20.8994 9.31748 20.8539 9.26435 20.798 9.22386C20.7422 9.18336 20.6775 9.15666 20.6093 9.14591L17.2068 8.61066V8.27666L21.7998 7.26016L23.5161 8.97516C23.5982 9.05718 23.7095 9.1033 23.8256 9.1034H27.0206C28.3526 12.182 28.501 15.6441 27.4373 18.8254V18.8264ZM26.6021 8.22941H24.0066L22.2498 6.47191C22.1978 6.41996 22.1336 6.38192 22.063 6.3613C21.9925 6.34068 21.9179 6.33814 21.8461 6.35391L16.6748 7.49816C16.5776 7.51971 16.4907 7.57376 16.4283 7.65139C16.366 7.72902 16.3319 7.82558 16.3318 7.92516V8.98466C16.3319 9.08887 16.3691 9.18965 16.4369 9.26884C16.5046 9.34804 16.5984 9.40046 16.7013 9.41666L20.2531 9.97516L21.1263 11.6842C21.1538 11.738 21.1922 11.7856 21.239 11.8238C21.2858 11.8621 21.3401 11.8902 21.3983 11.9064L23.6633 12.5377V13.8077L22.3038 15.2062C22.2245 15.2879 22.1801 15.3973 22.1801 15.5112V17.6409L20.7356 20.1632C20.151 20.6817 19.6599 21.2968 19.2836 21.9817H18.3086V20.5969C18.3086 20.5363 18.296 20.4763 18.2716 20.4208C18.2472 20.3653 18.2115 20.3154 18.1668 20.2744L16.2748 18.5397V16.5282C16.2748 16.4384 16.2472 16.3508 16.1957 16.2772C16.1441 16.2037 16.0712 16.1478 15.9868 16.1172L12.0788 14.6962V11.4462L14.6323 8.68891C14.6737 8.64424 14.7053 8.59144 14.7251 8.53387C14.7449 8.47629 14.7525 8.41522 14.7473 8.35456C14.7422 8.2939 14.7244 8.23498 14.6952 8.18158C14.666 8.12817 14.6259 8.08145 14.5776 8.0444L12.2421 6.25291L14.1561 3.55291H18.0618C18.1779 3.55285 18.2891 3.50672 18.3711 3.42466L19.8356 1.96041C22.7472 3.20619 25.138 5.4212 26.6021 8.22941ZM5.70659 4.10841L6.80509 6.37116L5.92059 6.81366C5.87712 6.83537 5.83758 6.86418 5.80359 6.89891L3.72709 9.01766C3.6697 9.07619 3.6299 9.14966 3.61223 9.2297C3.59455 9.30975 3.5997 9.39315 3.62709 9.47041L3.92484 10.3074C3.58351 10.5177 3.2744 10.7763 3.00709 11.0752L1.24284 11.3722C1.91682 8.53632 3.48111 5.9908 5.70659 4.10841ZM0.87809 14.6349H2.31134L5.92759 15.9952L7.77759 19.1272V20.3807L7.23559 21.2037C7.1762 21.2936 7.15216 21.4024 7.16808 21.509C7.184 21.6157 7.23876 21.7127 7.32184 21.7814L7.45934 21.8949L6.14709 22.6794C6.0822 22.7182 6.02847 22.7731 5.99114 22.8388C5.95381 22.9045 5.93415 22.9788 5.93409 23.0544V25.0952C4.37166 23.8327 3.10803 22.2401 2.23388 20.4316C1.35973 18.6231 0.896722 16.6435 0.87809 14.6349ZM14.5073 28.1402C11.7575 28.1426 9.07195 27.3085 6.80734 25.7487C6.80734 25.7432 6.80884 25.7379 6.80884 25.7324V23.3032L8.43934 22.3282C8.49953 22.2923 8.55021 22.2425 8.58712 22.1829C8.62403 22.1233 8.64608 22.0558 8.65142 21.9859C8.65677 21.916 8.64524 21.8459 8.61782 21.7814C8.59039 21.717 8.54787 21.66 8.49384 21.6154L8.18184 21.3572L8.58009 20.7527C8.62731 20.6812 8.65244 20.5975 8.65234 20.5119V19.0074C8.65244 18.9292 8.63145 18.8524 8.59159 18.7852L6.60259 15.4177C6.55185 15.3317 6.47325 15.2657 6.37984 15.2307L2.54484 13.7879C2.4956 13.7694 2.44344 13.7599 2.39084 13.7599H0.89609C0.923573 13.2675 0.977567 12.777 1.05784 12.2904L3.30784 11.9119C3.41175 11.8944 3.50584 11.84 3.57284 11.7587C3.86962 11.3994 4.23893 11.1068 4.65659 10.9002C4.75218 10.8524 4.827 10.7713 4.86693 10.6722C4.90686 10.5731 4.90914 10.4628 4.87334 10.3622L4.54334 9.43416L6.37734 7.56291L7.58309 6.95991C7.68608 6.90838 7.76461 6.81834 7.80168 6.70931C7.83874 6.60027 7.83134 6.48102 7.78109 6.37741L6.40809 3.55016C8.18265 2.23404 10.2513 1.37033 12.4349 1.03382C14.6184 0.697303 16.8511 0.89813 18.9396 1.61891L17.8806 2.67791H13.9298C13.8599 2.67794 13.791 2.6947 13.7289 2.7268C13.6668 2.7589 13.6133 2.80539 13.5728 2.86241L11.2846 6.09066C11.2192 6.18299 11.1921 6.29707 11.209 6.40895C11.226 6.52082 11.2856 6.62179 11.3753 6.69066L13.6641 8.44616L11.3206 10.9752C11.2456 11.0561 11.2038 11.1623 11.2038 11.2727V15.0027C11.2038 15.0924 11.2315 15.1801 11.283 15.2536C11.3345 15.3271 11.4074 15.383 11.4918 15.4137L15.3998 16.8347V18.7322C15.3999 18.7928 15.4125 18.8528 15.4369 18.9083C15.4613 18.9638 15.4969 19.0136 15.5416 19.0547L17.4338 20.7892V22.4192C17.4338 22.5352 17.4799 22.6465 17.562 22.7285C17.644 22.8106 17.7553 22.8567 17.8713 22.8567H18.8831C18.3309 24.3305 18.3109 25.9509 18.8263 27.4379C17.434 27.9036 15.9755 28.1407 14.5073 28.1402ZM25.2268 31.1252C24.0603 31.1252 22.9199 30.7793 21.9499 30.1312C20.9799 29.4831 20.2238 28.562 19.7774 27.4842C19.3309 26.4064 19.2141 25.2204 19.4417 24.0763C19.6692 22.9321 20.231 21.8811 21.0559 21.0562C21.8808 20.2313 22.9318 19.6696 24.076 19.442C25.2201 19.2144 26.4061 19.3312 27.4839 19.7777C28.5616 20.2241 29.4828 20.9802 30.1309 21.9502C30.779 22.9202 31.1249 24.0606 31.1248 25.2272C31.1231 26.7908 30.5011 28.29 29.3954 29.3957C28.2897 30.5014 26.7905 31.1234 25.2268 31.1252Z" fill="white"/>
<path d="M29.9117 22.7547L29.3555 22.1982C29.0842 21.9269 28.7162 21.7745 28.3325 21.7745C27.9488 21.7745 27.5808 21.9269 27.3095 22.1982L26.1425 23.365L24.1525 22.9042C23.8855 22.8415 23.6069 22.8483 23.3432 22.9238C23.0795 22.9993 22.8396 23.1412 22.6462 23.3357L22.1865 23.7957C22.1361 23.846 22.0987 23.9079 22.0776 23.976C22.0566 24.0441 22.0525 24.1163 22.0657 24.1863C22.0789 24.2563 22.109 24.322 22.1534 24.3777C22.1978 24.4334 22.2552 24.4775 22.3205 24.506L24.1867 25.321L23.4517 26.0557L21.704 26.2177C21.6025 26.2267 21.5073 26.2709 21.435 26.3427L20.543 27.2345C20.4891 27.2884 20.4503 27.3555 20.4303 27.429C20.4104 27.5026 20.4099 27.5801 20.4291 27.6538C20.4483 27.7276 20.4864 27.7951 20.5396 27.8496C20.5929 27.9041 20.6595 27.9438 20.7327 27.9647L22.9157 28.5857C23.3365 28.7054 23.7815 28.7105 24.2049 28.6007C24.6282 28.4908 25.0146 28.2699 25.324 27.9607L29.9117 23.373C29.9524 23.3324 29.9847 23.2842 30.0067 23.2311C30.0287 23.178 30.04 23.1212 30.04 23.0637C30.04 23.0063 30.0287 22.9494 30.0067 22.8963C29.9847 22.8433 29.9524 22.7953 29.9117 22.7547ZM24.7052 27.3422C24.5062 27.5413 24.2575 27.6836 23.985 27.7544C23.7125 27.8252 23.4261 27.8219 23.1552 27.745L21.6887 27.328L21.9422 27.0745L23.69 26.9122C23.7915 26.9033 23.8867 26.8591 23.959 26.7872L25.259 25.4872C25.3094 25.4369 25.3467 25.375 25.3677 25.3069C25.3887 25.2389 25.3927 25.1667 25.3795 25.0967C25.3663 25.0268 25.3362 24.9611 25.2918 24.9054C25.2474 24.8497 25.19 24.8057 25.1247 24.7772L23.2587 23.962L23.2652 23.9555C23.3537 23.8663 23.4636 23.8013 23.5843 23.7667C23.7051 23.7321 23.8327 23.7291 23.955 23.758L26.1817 24.2735C26.2541 24.2902 26.3294 24.2883 26.4008 24.2678C26.4721 24.2473 26.5371 24.209 26.5895 24.1565L27.9282 22.8182C28.037 22.714 28.1819 22.6559 28.3325 22.6559C28.4831 22.6559 28.6279 22.714 28.7367 22.8182L28.9837 23.0652L24.7052 27.3422Z" fill="white"/>
</g>
<defs>
<clipPath id="clip0_283_540">
<rect width="32" height="32" fill="white"/>
</clipPath>
</defs>
</svg>
