<svg width="27" height="28" viewBox="0 0 27 28" fill="none" xmlns="http://www.w3.org/2000/svg">
<path fill-rule="evenodd" clip-rule="evenodd" d="M11.6673 1.7886L12.3657 3.6279C12.3866 3.68317 12.4356 3.7187 12.4946 3.72157L14.4597 3.81734C14.5933 3.82385 14.648 3.99222 14.5438 4.07605L13.0103 5.30856C12.9642 5.34558 12.9455 5.40305 12.961 5.46012L13.4772 7.35858C13.5123 7.48767 13.3691 7.59175 13.2572 7.51844L11.611 6.4409C11.5616 6.4085 11.5012 6.4085 11.4517 6.4409L9.80563 7.51844C9.69366 7.59175 9.55047 7.48767 9.58559 7.35858L10.1017 5.46007C10.1172 5.403 10.0986 5.34553 10.0525 5.30851L8.51903 4.07599C8.41474 3.99217 8.46945 3.8238 8.60311 3.81729L10.5682 3.72152C10.6272 3.71865 10.6761 3.68312 10.6971 3.62785L11.3955 1.78855C11.4426 1.66422 11.6202 1.66422 11.6673 1.7886ZM21.1683 17.366C23.6367 17.366 25.6377 19.367 25.6377 21.8354C25.6377 24.3037 23.6367 26.3047 21.1683 26.3047C18.7 26.3047 16.699 24.3037 16.699 21.8354C16.699 19.367 18.7 17.366 21.1683 17.366ZM20.5813 22.2296L19.5827 21.2309C19.3239 20.9721 18.904 20.9721 18.6452 21.2309C18.3864 21.4897 18.3864 21.9096 18.6452 22.1684L20.114 23.6372C20.3728 23.896 20.7926 23.896 21.0515 23.6372C21.9368 22.7519 22.8121 21.8566 23.6933 20.9672C23.9503 20.7078 23.9495 20.2893 23.6904 20.0317C23.4314 19.7741 23.0117 19.7748 22.7545 20.0347L20.5813 22.2296ZM4.17603 23.9058L16.2994 23.9057C16.0287 23.2698 15.8788 22.5701 15.8788 21.8354C15.8788 20.7179 16.2256 19.6816 16.817 18.8276C15.4126 17.5754 13.5611 16.8143 11.5315 16.8143C7.62458 16.8143 4.3765 19.6338 3.7103 23.349C3.6579 23.6409 3.87954 23.9058 4.17603 23.9058ZM11.5315 8.26594C13.7504 8.26594 15.5493 10.0648 15.5493 12.2837C15.5493 14.5027 13.7504 16.3015 11.5315 16.3015C9.31252 16.3015 7.51368 14.5027 7.51368 12.2837C7.51363 10.0648 9.31247 8.26594 11.5315 8.26594ZM18.4364 4.39207C18.3892 4.26769 18.2116 4.26769 18.1644 4.39207L17.466 6.23137C17.4451 6.28668 17.3961 6.32216 17.3371 6.32503L15.372 6.42081C15.2384 6.42732 15.1837 6.59569 15.2879 6.67951L16.8214 7.91203C16.8675 7.9491 16.8862 8.00652 16.8706 8.06358L16.3545 9.9621C16.3194 10.0912 16.4626 10.1953 16.5745 10.122L18.2206 9.04442C18.2701 9.01202 18.3305 9.01202 18.3799 9.04442L20.0261 10.122C20.138 10.1953 20.2812 10.0912 20.2461 9.9621L19.7299 8.06364C19.7144 8.00657 19.7331 7.94915 19.7791 7.91208L21.3126 6.67956C21.4169 6.59574 21.3622 6.42737 21.2285 6.42086L19.2635 6.32509C19.2044 6.32221 19.1556 6.28668 19.1345 6.23142L18.4364 4.39207ZM4.89827 4.39207C4.85105 4.26769 4.67345 4.26769 4.62628 4.39207L3.92794 6.23137C3.90697 6.28668 3.85806 6.32216 3.799 6.32503L1.83394 6.42081C1.70028 6.42732 1.64558 6.59569 1.74986 6.67951L3.28333 7.91203C3.32942 7.9491 3.34808 8.00652 3.33255 8.06358L2.81642 9.9621C2.7813 10.0912 2.92449 10.1953 3.03647 10.122L4.68253 9.04442C4.732 9.01202 4.7924 9.01202 4.84187 9.04442L6.48798 10.122C6.59996 10.1953 6.74315 10.0912 6.70803 9.9621L6.1919 8.06364C6.17637 8.00657 6.19503 7.94915 6.24112 7.91208L7.77459 6.67956C7.87887 6.59574 7.82417 6.42737 7.69051 6.42086L5.72545 6.32509C5.66639 6.32221 5.61753 6.28668 5.59651 6.23142L4.89827 4.39207Z" fill="white"/>
</svg>
