<svg width="32" height="32" viewBox="0 0 32 32" fill="none" xmlns="http://www.w3.org/2000/svg">
<g clip-path="url(#clip0_369_804)">
<path d="M29.6604 9.06287C29.6604 7.73302 29.2661 6.43301 28.5273 5.32726C27.7885 4.22151 26.7384 3.35967 25.5098 2.85073C24.2812 2.3418 22.9293 2.20862 21.625 2.46805C20.3207 2.72748 19.1226 3.36786 18.1822 4.30821C17.2419 5.24856 16.6015 6.44664 16.3421 7.75094C16.0826 9.05525 16.2158 10.4072 16.7248 11.6358C17.2337 12.8644 18.0955 13.9145 19.2013 14.6533C20.307 15.3921 21.607 15.7864 22.9369 15.7864C24.7195 15.7844 26.4285 15.0754 27.6889 13.8149C28.9494 12.5544 29.6584 10.8454 29.6604 9.06287ZM17.0881 9.06287C17.0881 7.90609 17.4311 6.77527 18.0737 5.81341C18.7164 4.85156 19.6298 4.10187 20.6985 3.65915C21.7672 3.21644 22.9432 3.10057 24.0778 3.32622C25.2123 3.55187 26.2545 4.10889 27.0725 4.92684C27.8905 5.74479 28.4475 6.78694 28.6732 7.92149C28.8989 9.05605 28.7831 10.232 28.3405 11.3008C27.8978 12.3695 27.1481 13.283 26.1863 13.9257C25.2245 14.5683 24.0937 14.9114 22.9369 14.9114C21.3863 14.9096 19.8997 14.2928 18.8033 13.1964C17.7068 12.1 17.09 10.6135 17.0881 9.06287Z" fill="white"/>
<path d="M26.2494 22.5325H11.1556V21.0508H22.9369C22.9972 21.0506 23.0568 21.0378 23.1119 21.0133H23.1134C23.4769 20.8528 31.9994 16.9858 31.9994 9.0625C31.9994 6.65898 31.0446 4.35389 29.345 2.65435C27.6455 0.954796 25.3404 0 22.9369 0C20.5334 0 18.2283 0.954796 16.5287 2.65435C14.8292 4.35389 13.8744 6.65898 13.8744 9.0625C13.8744 13.1808 16.1769 16.2008 18.4391 18.1758H10.9681C10.2556 18.1765 9.57249 18.4599 9.06866 18.9638C8.56483 19.4676 8.28143 20.1507 8.28063 20.8633V22.7193C8.28143 23.4318 8.56483 24.1149 9.06866 24.6187C9.57249 25.1226 10.2556 25.406 10.9681 25.4068H26.0619V26.7025H7.43688C7.10295 25.8705 6.48977 25.1807 5.70264 24.7516C4.91551 24.3225 4.00354 24.1808 3.1233 24.3508C2.24307 24.5209 1.4495 24.9921 0.878858 25.6835C0.308213 26.375 -0.00390625 27.2435 -0.00390625 28.14C-0.00390625 29.0365 0.308213 29.9051 0.878858 30.5965C1.4495 31.2879 2.24307 31.7591 3.1233 31.9292C4.00354 32.0992 4.91551 31.9575 5.70264 31.5284C6.48977 31.0993 7.10295 30.4095 7.43688 29.5775H26.2494C26.9619 29.5767 27.645 29.2933 28.1489 28.7895C28.6527 28.2856 28.9361 27.6025 28.9369 26.89V25.2193C28.9359 24.5069 28.6524 23.8239 28.1486 23.3203C27.6448 22.8166 26.9618 22.5333 26.2494 22.5325ZM14.7494 9.0625C14.7494 6.89104 15.612 4.80852 17.1474 3.27306C18.6829 1.73761 20.7654 0.875 22.9369 0.875C25.1083 0.875 27.1909 1.73761 28.7263 3.27306C30.2618 4.80852 31.1244 6.89104 31.1244 9.0625C31.1244 15.8083 24.1469 19.5343 22.9366 20.1293C21.7256 19.5353 14.7494 15.8178 14.7494 9.0625ZM3.85863 31.1258C3.26837 31.1258 2.69137 30.9507 2.20058 30.6228C1.7098 30.2949 1.32726 29.8288 1.10136 29.2835C0.875455 28.7382 0.816323 28.1381 0.93144 27.5592C1.04656 26.9803 1.33075 26.4485 1.74809 26.0311C2.16543 25.6137 2.69717 25.3294 3.27608 25.2142C3.85498 25.0989 4.45505 25.158 5.0004 25.3838C5.54576 25.6096 6.01191 25.9921 6.33991 26.4828C6.66791 26.9735 6.84303 27.5505 6.84313 28.1408C6.8424 28.9321 6.52775 29.6909 5.96822 30.2505C5.40869 30.8101 4.64999 31.1249 3.85863 31.1258ZM28.0619 26.8908C28.0614 27.3713 27.8702 27.832 27.5304 28.1718C27.1906 28.5116 26.7299 28.7027 26.2494 28.7033H7.67238C7.73338 28.3307 7.73338 27.9508 7.67238 27.5783H26.2494C26.4317 27.5781 26.6064 27.5056 26.7353 27.3767C26.8642 27.2478 26.9367 27.073 26.9369 26.8908V25.22C26.9368 25.0377 26.8643 24.8629 26.7354 24.734C26.6065 24.6051 26.4317 24.5326 26.2494 24.5325H10.9681C10.4876 24.532 10.0269 24.3408 9.68709 24.001C9.34729 23.6613 9.15616 23.2005 9.15563 22.72V20.864C9.15616 20.3835 9.34729 19.9228 9.68709 19.583C10.0269 19.2432 10.4876 19.052 10.9681 19.0515H19.5204C20.0583 19.4544 20.6161 19.8299 21.1919 20.1765H10.9681C10.7858 20.1766 10.611 20.2491 10.4821 20.378C10.3532 20.5069 10.2808 20.6817 10.2806 20.864V22.72C10.2808 22.9023 10.3533 23.077 10.4822 23.2059C10.6111 23.3348 10.7859 23.4073 10.9681 23.4075H26.2494C26.7299 23.408 27.1906 23.5992 27.5304 23.939C27.8702 24.2788 28.0614 24.7395 28.0619 25.22V26.8908Z" fill="white"/>
</g>
<defs>
<clipPath id="clip0_369_804">
<rect width="32" height="32" fill="white"/>
</clipPath>
</defs>
</svg>
