<svg width="32" height="32" viewBox="0 0 32 32" fill="none" xmlns="http://www.w3.org/2000/svg">
<path d="M26.875 28.625H17.6875V22.8125H22.7178C22.7895 22.8125 22.8601 22.7949 22.9234 22.7612C22.9867 22.7275 23.0407 22.6787 23.0807 22.6192L25.5828 18.9C25.6313 18.8278 25.6572 18.7428 25.6572 18.6558C25.6572 18.5687 25.6313 18.4837 25.5828 18.4115L23.0807 14.6932C23.0407 14.6338 22.9867 14.585 22.9234 14.5513C22.8601 14.5176 22.7895 14.5 22.7178 14.5H17.6875V12.375H22.7178C22.8338 12.375 22.9451 12.3289 23.0271 12.2469C23.1092 12.1648 23.1553 12.0535 23.1553 11.9375V4.5C23.1553 4.38397 23.1092 4.27269 23.0271 4.19064C22.9451 4.10859 22.8338 4.0625 22.7178 4.0625H17.6875V1.43675C17.6868 1.05577 17.5352 0.690601 17.2657 0.42128C16.9962 0.151959 16.631 0.00046266 16.25 0L15.75 0C15.3689 0.000463111 15.0035 0.152062 14.734 0.421546C14.4646 0.691029 14.313 1.05639 14.3125 1.4375V4.0625H9.28225C9.21054 4.0625 9.13993 4.08012 9.07663 4.11382C9.01333 4.14751 8.95928 4.19626 8.91925 4.25575L6.41725 7.975C6.36873 8.04722 6.34282 8.13225 6.34282 8.21925C6.34282 8.30625 6.36873 8.39128 6.41725 8.4635L8.91925 12.1818C8.95928 12.2412 9.01333 12.29 9.07663 12.3237C9.13993 12.3574 9.21054 12.375 9.28225 12.375H14.3125V14.5H9.28225C9.16624 14.5001 9.055 14.5462 8.97296 14.6282C8.89093 14.7102 8.84482 14.8215 8.84475 14.9375V22.375C8.84482 22.491 8.89093 22.6023 8.97296 22.6843C9.055 22.7663 9.16624 22.8124 9.28225 22.8125H14.3125V28.625H5.125C5.00897 28.625 4.89769 28.6711 4.81564 28.7531C4.73359 28.8352 4.6875 28.9465 4.6875 29.0625V31.5625C4.68757 31.6785 4.73368 31.7898 4.81571 31.8718C4.89775 31.9538 5.00899 31.9999 5.125 32H26.875C26.991 32 27.1023 31.9539 27.1844 31.8719C27.2664 31.7898 27.3125 31.6785 27.3125 31.5625V29.0625C27.3125 29.005 27.3012 28.9481 27.2793 28.895C27.2573 28.8419 27.2251 28.7937 27.1844 28.7531C27.1438 28.7124 27.0956 28.6802 27.0425 28.6582C26.9894 28.6363 26.9325 28.625 26.875 28.625ZM15.1875 1.43675C15.1878 1.28774 15.2472 1.14493 15.3527 1.03963C15.4581 0.934335 15.601 0.875132 15.75 0.875H16.25C16.3991 0.875198 16.5421 0.934525 16.6475 1.03997C16.753 1.14542 16.8123 1.28838 16.8125 1.4375V4.0625H15.1875V1.43675ZM7.3075 8.21875L9.515 4.9375H22.2803V11.5H9.515L7.3075 8.21875ZM15.1875 12.375H16.8125V14.5H15.1875V12.375ZM9.71975 15.375H22.4848L24.6922 18.6562L22.4848 21.9375H9.71975V15.375ZM15.1875 22.8125H16.8125V28.625H15.1875V22.8125ZM26.4375 31.1243H5.5625V29.5H26.4375V31.1243Z" fill="#223160"/>
<path d="M10.3477 6.9361H20.7182C20.8342 6.9361 20.9455 6.89 21.0275 6.80796C21.1096 6.72591 21.1557 6.61463 21.1557 6.4986C21.1557 6.38256 21.1096 6.27128 21.0275 6.18924C20.9455 6.10719 20.8342 6.0611 20.7182 6.0611H10.3477C10.2316 6.0611 10.1203 6.10719 10.0383 6.18924C9.95625 6.27128 9.91016 6.38256 9.91016 6.4986C9.91016 6.61463 9.95625 6.72591 10.0383 6.80796C10.1203 6.89 10.2316 6.9361 10.3477 6.9361Z" fill="#223160"/>
<path d="M10.3477 8.65558H20.7182C20.8342 8.65558 20.9455 8.60949 21.0275 8.52744C21.1096 8.44539 21.1557 8.33411 21.1557 8.21808C21.1557 8.10205 21.1096 7.99077 21.0275 7.90872C20.9455 7.82667 20.8342 7.78058 20.7182 7.78058H10.3477C10.2316 7.78058 10.1203 7.82667 10.0383 7.90872C9.95625 7.99077 9.91016 8.10205 9.91016 8.21808C9.91016 8.33411 9.95625 8.44539 10.0383 8.52744C10.1203 8.60949 10.2316 8.65558 10.3477 8.65558Z" fill="#223160"/>
<path d="M15.9704 9.9375C15.9703 9.82149 15.9242 9.71025 15.8422 9.62821C15.7602 9.54618 15.6489 9.50007 15.5329 9.5H10.3477C10.2316 9.5 10.1203 9.54609 10.0383 9.62814C9.95625 9.71019 9.91016 9.82147 9.91016 9.9375C9.91016 10.0535 9.95625 10.1648 10.0383 10.2469C10.1203 10.3289 10.2316 10.375 10.3477 10.375H15.5329C15.6489 10.3749 15.7602 10.3288 15.8422 10.2468C15.9242 10.1648 15.9703 10.0535 15.9704 9.9375Z" fill="#223160"/>
<path d="M11.0986 17.3583H21.4691C21.5852 17.3583 21.6964 17.3122 21.7785 17.2302C21.8605 17.1482 21.9066 17.0369 21.9066 16.9208C21.9066 16.8048 21.8605 16.6935 21.7785 16.6115C21.6964 16.5294 21.5852 16.4833 21.4691 16.4833H11.0986C10.9826 16.4833 10.8713 16.5294 10.7893 16.6115C10.7072 16.6935 10.6611 16.8048 10.6611 16.9208C10.6611 17.0369 10.7072 17.1482 10.7893 17.2302C10.8713 17.3122 10.9826 17.3583 11.0986 17.3583Z" fill="#223160"/>
<path d="M11.0986 19.0778H21.4691C21.5852 19.0778 21.6964 19.0317 21.7785 18.9496C21.8605 18.8676 21.9066 18.7563 21.9066 18.6403C21.9066 18.5242 21.8605 18.4129 21.7785 18.3309C21.6964 18.2489 21.5852 18.2028 21.4691 18.2028H11.0986C10.9826 18.2028 10.8713 18.2489 10.7893 18.3309C10.7072 18.4129 10.6611 18.5242 10.6611 18.6403C10.6611 18.7563 10.7072 18.8676 10.7893 18.9496C10.8713 19.0317 10.9826 19.0778 11.0986 19.0778Z" fill="#223160"/>
<path d="M16.7214 20.3597C16.7214 20.2437 16.6753 20.1324 16.5932 20.0504C16.5112 19.9683 16.3999 19.9222 16.2839 19.9222H11.0986C10.9826 19.9222 10.8713 19.9683 10.7893 20.0504C10.7072 20.1324 10.6611 20.2437 10.6611 20.3597C10.6611 20.4758 10.7072 20.5871 10.7893 20.6691C10.8713 20.7511 10.9826 20.7972 11.0986 20.7972H16.2839C16.3999 20.7972 16.5112 20.7511 16.5932 20.6691C16.6753 20.5871 16.7214 20.4758 16.7214 20.3597Z" fill="#223160"/>
</svg>
