<svg width="24" height="32" viewBox="0 0 24 32" fill="none" xmlns="http://www.w3.org/2000/svg">
<path d="M22.875 28.625H13.6875V22.8125H18.7178C18.7895 22.8125 18.8601 22.7949 18.9234 22.7612C18.9867 22.7275 19.0407 22.6787 19.0807 22.6192L21.5828 18.9C21.6313 18.8278 21.6572 18.7428 21.6572 18.6558C21.6572 18.5687 21.6313 18.4837 21.5828 18.4115L19.0807 14.6932C19.0407 14.6338 18.9867 14.585 18.9234 14.5513C18.8601 14.5176 18.7895 14.5 18.7178 14.5H13.6875V12.375H18.7178C18.8338 12.375 18.9451 12.3289 19.0271 12.2469C19.1092 12.1648 19.1553 12.0535 19.1553 11.9375V4.5C19.1553 4.38397 19.1092 4.27269 19.0271 4.19064C18.9451 4.10859 18.8338 4.0625 18.7178 4.0625H13.6875V1.43675C13.6868 1.05577 13.5352 0.690601 13.2657 0.42128C12.9962 0.151959 12.631 0.00046266 12.25 0L11.75 0C11.3689 0.000463111 11.0035 0.152062 10.734 0.421546C10.4646 0.691029 10.313 1.05639 10.3125 1.4375V4.0625H5.28225C5.21054 4.0625 5.13993 4.08012 5.07663 4.11382C5.01333 4.14751 4.95928 4.19626 4.91925 4.25575L2.41725 7.975C2.36873 8.04722 2.34282 8.13225 2.34282 8.21925C2.34282 8.30625 2.36873 8.39128 2.41725 8.4635L4.91925 12.1818C4.95928 12.2412 5.01333 12.29 5.07663 12.3237C5.13993 12.3574 5.21054 12.375 5.28225 12.375H10.3125V14.5H5.28225C5.16624 14.5001 5.055 14.5462 4.97296 14.6282C4.89093 14.7102 4.84482 14.8215 4.84475 14.9375V22.375C4.84482 22.491 4.89093 22.6023 4.97296 22.6843C5.055 22.7663 5.16624 22.8124 5.28225 22.8125H10.3125V28.625H1.125C1.00897 28.625 0.897688 28.6711 0.815641 28.7531C0.733594 28.8352 0.6875 28.9465 0.6875 29.0625V31.5625C0.687566 31.6785 0.733681 31.7898 0.815714 31.8718C0.897747 31.9538 1.00899 31.9999 1.125 32H22.875C22.991 32 23.1023 31.9539 23.1844 31.8719C23.2664 31.7898 23.3125 31.6785 23.3125 31.5625V29.0625C23.3125 29.005 23.3012 28.9481 23.2793 28.895C23.2573 28.8419 23.2251 28.7937 23.1844 28.7531C23.1438 28.7124 23.0956 28.6802 23.0425 28.6582C22.9894 28.6363 22.9325 28.625 22.875 28.625ZM11.1875 1.43675C11.1878 1.28774 11.2472 1.14493 11.3527 1.03963C11.4581 0.934335 11.601 0.875132 11.75 0.875H12.25C12.3991 0.875198 12.5421 0.934525 12.6475 1.03997C12.753 1.14542 12.8123 1.28838 12.8125 1.4375V4.0625H11.1875V1.43675ZM3.3075 8.21875L5.515 4.9375H18.2803V11.5H5.515L3.3075 8.21875ZM11.1875 12.375H12.8125V14.5H11.1875V12.375ZM5.71975 15.375H18.4848L20.6922 18.6562L18.4848 21.9375H5.71975V15.375ZM11.1875 22.8125H12.8125V28.625H11.1875V22.8125ZM22.4375 31.1243H1.5625V29.5H22.4375V31.1243Z" fill="white"/>
<path d="M6.34766 6.9361H16.7182C16.8342 6.9361 16.9455 6.89 17.0275 6.80796C17.1096 6.72591 17.1557 6.61463 17.1557 6.4986C17.1557 6.38256 17.1096 6.27128 17.0275 6.18924C16.9455 6.10719 16.8342 6.0611 16.7182 6.0611H6.34766C6.23162 6.0611 6.12034 6.10719 6.0383 6.18924C5.95625 6.27128 5.91016 6.38256 5.91016 6.4986C5.91016 6.61463 5.95625 6.72591 6.0383 6.80796C6.12034 6.89 6.23162 6.9361 6.34766 6.9361Z" fill="white"/>
<path d="M6.34766 8.65558H16.7182C16.8342 8.65558 16.9455 8.60949 17.0275 8.52744C17.1096 8.44539 17.1557 8.33411 17.1557 8.21808C17.1557 8.10205 17.1096 7.99077 17.0275 7.90872C16.9455 7.82667 16.8342 7.78058 16.7182 7.78058H6.34766C6.23162 7.78058 6.12034 7.82667 6.0383 7.90872C5.95625 7.99077 5.91016 8.10205 5.91016 8.21808C5.91016 8.33411 5.95625 8.44539 6.0383 8.52744C6.12034 8.60949 6.23162 8.65558 6.34766 8.65558Z" fill="white"/>
<path d="M11.9704 9.9375C11.9703 9.82149 11.9242 9.71025 11.8422 9.62821C11.7602 9.54618 11.6489 9.50007 11.5329 9.5H6.34766C6.23162 9.5 6.12034 9.54609 6.0383 9.62814C5.95625 9.71019 5.91016 9.82147 5.91016 9.9375C5.91016 10.0535 5.95625 10.1648 6.0383 10.2469C6.12034 10.3289 6.23162 10.375 6.34766 10.375H11.5329C11.6489 10.3749 11.7602 10.3288 11.8422 10.2468C11.9242 10.1648 11.9703 10.0535 11.9704 9.9375Z" fill="white"/>
<path d="M7.09863 17.3583H17.4691C17.5852 17.3583 17.6964 17.3122 17.7785 17.2302C17.8605 17.1482 17.9066 17.0369 17.9066 16.9208C17.9066 16.8048 17.8605 16.6935 17.7785 16.6115C17.6964 16.5294 17.5852 16.4833 17.4691 16.4833H7.09863C6.9826 16.4833 6.87132 16.5294 6.78927 16.6115C6.70723 16.6935 6.66113 16.8048 6.66113 16.9208C6.66113 17.0369 6.70723 17.1482 6.78927 17.2302C6.87132 17.3122 6.9826 17.3583 7.09863 17.3583Z" fill="white"/>
<path d="M7.09863 19.0778H17.4691C17.5852 19.0778 17.6964 19.0317 17.7785 18.9496C17.8605 18.8676 17.9066 18.7563 17.9066 18.6403C17.9066 18.5242 17.8605 18.4129 17.7785 18.3309C17.6964 18.2489 17.5852 18.2028 17.4691 18.2028H7.09863C6.9826 18.2028 6.87132 18.2489 6.78927 18.3309C6.70723 18.4129 6.66113 18.5242 6.66113 18.6403C6.66113 18.7563 6.70723 18.8676 6.78927 18.9496C6.87132 19.0317 6.9826 19.0778 7.09863 19.0778Z" fill="white"/>
<path d="M12.7214 20.3597C12.7214 20.2437 12.6753 20.1324 12.5932 20.0504C12.5112 19.9683 12.3999 19.9222 12.2839 19.9222H7.09863C6.9826 19.9222 6.87132 19.9683 6.78927 20.0504C6.70723 20.1324 6.66113 20.2437 6.66113 20.3597C6.66113 20.4758 6.70723 20.5871 6.78927 20.6691C6.87132 20.7511 6.9826 20.7972 7.09863 20.7972H12.2839C12.3999 20.7972 12.5112 20.7511 12.5932 20.6691C12.6753 20.5871 12.7214 20.4758 12.7214 20.3597Z" fill="white"/>
</svg>
