<svg width="246" height="34" viewBox="0 0 246 34" fill="none" xmlns="http://www.w3.org/2000/svg">
<g clip-path="url(#clip0_306_24133)">
<path d="M21.3854 34.0044V8.25495H7.16016V-0.279175H46.6777V8.25495H32.4524V34.0044H21.3854Z" fill="#E22131"/>
<path d="M65.1348 34.0044C59.1513 34.0044 54.741 32.5999 51.9017 29.7884C49.0623 26.9792 47.6426 22.6778 47.6426 16.8887C47.6426 11.0997 49.0623 6.79107 51.9017 3.96297C54.741 1.13487 59.1537 -0.279175 65.1348 -0.279175H73.9057C79.8892 -0.279175 84.2995 1.13487 87.1389 3.96297C89.9759 6.79107 91.3979 11.0997 91.3979 16.8887C91.3979 22.6778 89.9783 26.9792 87.1389 29.7884C84.2995 32.5999 79.8892 34.0044 73.9057 34.0044H65.1348ZM71.2033 25.7764C73.1073 25.7764 74.6451 25.5652 75.8191 25.1405C76.9931 24.7182 77.9097 24.1084 78.5735 23.3113C79.2373 22.5164 79.6861 21.5769 79.9247 20.4926C80.1632 19.4084 80.2813 18.2079 80.2813 16.8863C80.2813 15.5648 80.1609 14.3643 79.9247 13.28C79.6861 12.1958 79.2373 11.2657 78.5735 10.4875C77.9097 9.70933 76.9931 9.10907 75.8191 8.68438C74.6451 8.26206 73.1073 8.04853 71.2033 8.04853H67.3293C65.5624 8.04853 64.1167 8.25969 62.9946 8.68438C61.8726 9.10907 60.9962 9.70933 60.3678 10.4875C59.7395 11.2681 59.3143 12.1982 59.0946 13.28C58.8726 14.3643 58.7639 15.5648 58.7639 16.8863C58.7639 18.2079 58.8749 19.4084 59.0946 20.4926C59.3143 21.5769 59.7395 22.5164 60.3678 23.3113C60.9962 24.1084 61.8726 24.7158 62.9946 25.1405C64.1167 25.5652 65.5624 25.7764 67.3293 25.7764H71.2033Z" fill="#E22131"/>
<path d="M134.431 34.0044V11.9111C134.431 10.8268 134.065 9.97269 133.335 9.34633C132.605 8.71997 131.594 8.40679 130.302 8.40679H125.254V34.0068H114.494V8.40679H105.52V34.0068H94.6582V-0.279175H132.546C136.76 -0.279175 139.923 0.601047 142.03 2.36149C144.137 4.12194 145.191 6.67956 145.191 10.032V34.0044H134.431Z" fill="#E22131"/>
<path d="M165.537 34.0044C159.553 34.0044 155.143 32.5999 152.304 29.7884C149.467 26.9792 148.047 22.6778 148.047 16.8887C148.047 11.0997 149.467 6.79107 152.304 3.96297C155.141 1.13725 159.553 -0.279175 165.537 -0.279175H174.308C180.291 -0.279175 184.701 1.13487 187.541 3.96297C190.378 6.79107 191.8 11.0997 191.8 16.8887C191.8 22.6778 190.38 26.9792 187.541 29.7884C184.701 32.5999 180.291 34.0044 174.308 34.0044H165.537ZM171.603 25.7764C173.507 25.7764 175.045 25.5652 176.219 25.1405C177.393 24.7182 178.309 24.1084 178.973 23.3113C179.637 22.5164 180.086 21.5769 180.324 20.4926C180.563 19.4084 180.681 18.2079 180.681 16.8863C180.681 15.5648 180.56 14.3643 180.324 13.28C180.086 12.1958 179.637 11.2657 178.973 10.4875C178.309 9.70933 177.393 9.10907 176.219 8.68438C175.045 8.26206 173.507 8.04853 171.603 8.04853H167.729C165.962 8.04853 164.516 8.25969 163.394 8.68438C162.272 9.10907 161.396 9.70933 160.77 10.4875C160.139 11.2681 159.716 12.1982 159.494 13.28C159.272 14.3643 159.163 15.5648 159.163 16.8863C159.163 18.2079 159.274 19.4084 159.494 20.4926C159.714 21.5769 160.139 22.5164 160.77 23.3113C161.398 24.1084 162.275 24.7158 163.394 25.1405C164.516 25.5652 165.962 25.7764 167.729 25.7764H171.603Z" fill="#E22131"/>
<path d="M206.078 -0.279175H195.062V34.0044H206.078V-0.279175Z" fill="#E22131"/>
<path d="M210.004 34.0044V-0.279175H221.017V24.9127H243.708V34.0044H210.004Z" fill="#E22131"/>
<path d="M245.693 2.43776H243.857V1.57178H248.447V2.43776H246.612V7.63843H245.693V2.43776Z" fill="#E22131"/>
</g>
<defs>
<clipPath id="clip0_306_24133">
<rect width="246" height="34" fill="white"/>
</clipPath>
</defs>
</svg>
