<svg width="145" height="20" viewBox="0 0 145 20" fill="none" xmlns="http://www.w3.org/2000/svg">
<g clip-path="url(#clip0_59_440)">
<path d="M8.26399 20V4.97855H0V0H22.9572V4.97855H14.6932V20H8.26399Z" fill="#E22131"/>
<path d="M33.6804 20C30.2044 20 27.6423 19.1806 25.9928 17.5405C24.3433 15.9017 23.5186 13.3924 23.5186 10.0152C23.5186 6.63806 24.3433 4.12457 25.9928 2.47474C27.6423 0.824913 30.2058 0 33.6804 0H38.7758C42.2518 0 44.8139 0.824913 46.4634 2.47474C48.1116 4.12457 48.9377 6.63806 48.9377 10.0152C48.9377 13.3924 48.1129 15.9017 46.4634 17.5405C44.8139 19.1806 42.2518 20 38.7758 20H33.6804ZM37.2059 15.2C38.312 15.2 39.2053 15.0768 39.8874 14.8291C40.5694 14.5827 41.1018 14.227 41.4875 13.7619C41.8731 13.2983 42.1338 12.7502 42.2724 12.1176C42.411 11.4851 42.4796 10.7848 42.4796 10.0138C42.4796 9.24291 42.4097 8.54256 42.2724 7.91003C42.1338 7.27751 41.8731 6.73495 41.4875 6.28097C41.1018 5.82699 40.5694 5.47682 39.8874 5.22907C39.2053 4.9827 38.312 4.85813 37.2059 4.85813H34.9553C33.9288 4.85813 33.089 4.98131 32.4371 5.22907C31.7853 5.47682 31.2762 5.82699 30.9111 6.28097C30.5461 6.73633 30.2991 7.27889 30.1715 7.91003C30.0425 8.54256 29.9793 9.24291 29.9793 10.0138C29.9793 10.7848 30.0438 11.4851 30.1715 12.1176C30.2991 12.7502 30.5461 13.2983 30.9111 13.7619C31.2762 14.227 31.7853 14.5813 32.4371 14.8291C33.089 15.0768 33.9288 15.2 34.9553 15.2H37.2059Z" fill="#E22131"/>
<path d="M73.9384 20V7.11142C73.9384 6.47889 73.7257 5.98062 73.3017 5.61523C72.8777 5.24983 72.2903 5.06713 71.5397 5.06713H68.6071V20.0014H62.3562V5.06713H57.1428V20.0014H50.833V0H72.8433C75.2915 0 77.129 0.513495 78.3531 1.54048C79.5772 2.56747 80.1893 4.05952 80.1893 6.01523V20H73.9384Z" fill="#E22131"/>
<path d="M92.0087 20C88.5326 20 85.9705 19.1806 84.321 17.5405C82.6729 15.9017 81.8481 13.3924 81.8481 10.0152C81.8481 6.63806 82.6729 4.12457 84.321 2.47474C85.9692 0.826297 88.5326 0 92.0087 0H97.104C100.58 0 103.142 0.824913 104.792 2.47474C106.44 4.12457 107.266 6.63806 107.266 10.0152C107.266 13.3924 106.441 15.9017 104.792 17.5405C103.142 19.1806 100.58 20 97.104 20H92.0087ZM95.5327 15.2C96.6388 15.2 97.5322 15.0768 98.2142 14.8291C98.8962 14.5827 99.4287 14.227 99.8143 13.7619C100.2 13.2983 100.461 12.7502 100.599 12.1176C100.738 11.4851 100.806 10.7848 100.806 10.0138C100.806 9.24291 100.736 8.54256 100.599 7.91003C100.461 7.27751 100.2 6.73495 99.8143 6.28097C99.4287 5.82699 98.8962 5.47682 98.2142 5.22907C97.5322 4.9827 96.6388 4.85813 95.5327 4.85813H93.2822C92.2557 4.85813 91.4158 4.98131 90.764 5.22907C90.1121 5.47682 89.603 5.82699 89.2394 6.28097C88.8729 6.73633 88.6273 7.27889 88.4983 7.91003C88.3693 8.54256 88.3062 9.24291 88.3062 10.0138C88.3062 10.7848 88.3707 11.4851 88.4983 12.1176C88.6259 12.7502 88.8729 13.2983 89.2394 13.7619C89.6044 14.227 90.1135 14.5813 90.764 14.8291C91.4158 15.0768 92.2557 15.2 93.2822 15.2H95.5327Z" fill="#E22131"/>
<path d="M115.559 0H109.16V20H115.559V0Z" fill="#E22131"/>
<path d="M117.839 20V0H124.237V14.6962H137.419V20H117.839Z" fill="#E22131"/>
<path d="M138.572 1.58722H137.506V1.08203H140.172V1.58722H139.106V4.62113H138.572V1.58722Z" fill="#E22131"/>
<path d="M140.677 1.08203H141.127L142.39 3.80591L143.654 1.08203H144.103V4.62113H143.57V2.43013L142.559 4.62113H142.221L141.211 2.43013V4.62113H140.677V1.08203Z" fill="#E22131"/>
</g>
<defs>
<clipPath id="clip0_59_440">
<rect width="144.103" height="20" fill="white"/>
</clipPath>
</defs>
</svg>
